External Loads File
version=1
nRows=93
nColumns=13
Range=5.000000e-03-10 seconds
endheader
time 	forceRightX 	forceRightY 	forceRightZ 	pointRightX 	pointRightY 	pointRightZ 	forceLeftX 	forceLeftY 	forceLeftZ 	pointLeftX 	pointLeftY 	pointLeftZ 		
5.005000 16.656700 250.039384 -0.000000 0.358428 0.466896 -0.109055 174.668480 96.153267 -0.000000 0.162678 0.166694 -0.343726
5.010000 14.645073 262.682096 -0.000000 0.364554 0.461333 -0.108854 160.413217 36.850914 -0.000000 0.154226 0.173375 -0.343494
5.015000 12.592146 279.107625 -0.000000 0.370184 0.455235 -0.108603 145.999022 -15.597344 -0.000000 0.146274 0.180502 -0.343110
5.020000 10.365854 299.935678 -0.000000 0.375398 0.448290 -0.108352 130.747356 -60.275288 -0.000000 0.139140 0.187600 -0.342860
5.025000 7.916155 325.337990 -0.000000 0.379972 0.440363 -0.107971 114.520870 -96.194675 -0.000000 0.132810 0.194695 -0.342306
5.030000 4.709424 354.956177 -0.000000 0.383915 0.432269 -0.107537 97.961500 -122.555204 -0.000000 0.127104 0.201864 -0.341878
5.035000 1.109116 387.959056 -0.000000 0.387668 0.423485 -0.107243 81.899644 -139.600457 -0.000000 0.122043 0.209173 -0.341734
5.040000 -3.154490 423.270449 -0.000000 0.390930 0.414457 -0.106912 67.528489 -148.158200 -0.000000 0.117345 0.217133 -0.341780
5.045000 -8.127094 459.711844 -0.000000 0.393975 0.404763 -0.106645 55.878511 -149.695488 -0.000000 0.113132 0.225383 -0.341973
5.050000 -13.447939 496.154408 -0.000000 0.396725 0.394517 -0.106498 47.584910 -145.966945 -0.000000 0.109373 0.234272 -0.341975
5.055000 -19.416867 531.609469 -0.000000 0.399162 0.384000 -0.106414 43.127325 -138.625907 -0.000000 0.106054 0.243501 -0.341995
5.060000 -26.072429 565.315943 -0.000000 0.401213 0.373320 -0.106288 42.440564 -129.170959 -0.000000 0.103309 0.252889 -0.342218
5.065000 -32.703051 596.854575 -0.000000 0.402799 0.362490 -0.106140 44.831778 -118.896240 -0.000000 0.101217 0.262565 -0.342380
5.070000 -39.440553 626.124730 -0.000000 0.403885 0.351680 -0.105886 49.428057 -108.780076 -0.000000 0.099777 0.272319 -0.342574
5.075000 -46.088561 653.367609 -0.000000 0.404623 0.340806 -0.105497 55.061483 -99.579962 -0.000000 0.098917 0.281947 -0.342652
5.080000 -51.581901 679.144263 -0.000000 0.404890 0.329833 -0.105423 60.470423 -91.895104 -0.000000 0.098767 0.291852 -0.342989
5.085000 -56.710757 704.019392 -0.000000 0.404697 0.319061 -0.105198 64.900414 -85.927873 -0.000000 0.099292 0.301819 -0.343195
5.090000 -60.660339 728.699945 -0.000000 0.403798 0.308307 -0.105568 67.714719 -81.747835 -0.000000 0.100478 0.311898 -0.343452
5.095000 -62.061609 753.922940 -0.000000 0.402811 0.297273 -0.105978 68.616569 -79.219721 -0.000000 0.102315 0.322199 -0.343618
5.100000 -62.356328 780.109984 -0.000000 0.401108 0.286273 -0.105754 67.940071 -77.792672 -0.000000 0.104811 0.332233 -0.343748
5.105000 -60.751752 807.690093 -0.000000 0.398805 0.275435 -0.105555 65.982661 -77.121840 -0.000000 0.107928 0.342216 -0.343861
5.110000 -56.702309 836.864983 -0.000000 0.395987 0.264714 -0.105394 63.111729 -76.957148 -0.000000 0.111561 0.352128 -0.343965
5.115000 -50.640404 867.607262 -0.000000 0.392589 0.254305 -0.105212 59.666105 -77.136701 -0.000000 0.115788 0.361751 -0.344093
5.120000 -41.068166 899.845497 -0.000000 0.388598 0.244155 -0.105126 55.639571 -77.732495 -0.000000 0.120579 0.371400 -0.344178
5.125000 -28.539352 933.192523 -0.000000 0.384005 0.234286 -0.105035 51.064824 -78.636481 -0.000000 0.125929 0.380721 -0.344158
5.130000 -11.951350 967.120428 -0.000000 0.378970 0.224696 -0.104924 45.731553 -79.698373 -0.000000 0.131866 0.390084 -0.344288
5.135000 7.296163 1000.796791 -0.000000 0.373404 0.215563 -0.104884 39.602117 -80.441166 -0.000000 0.138274 0.399128 -0.344331
5.140000 30.412846 1033.155545 -0.000000 0.367398 0.206737 -0.104803 32.477646 -80.304610 -0.000000 0.145317 0.408101 -0.344451
5.145000 54.743529 1062.964359 -0.000000 0.361016 0.198387 -0.104881 24.616543 -78.429808 -0.000000 0.152676 0.416528 -0.344580
5.150000 80.246168 1088.788599 -0.000000 0.354210 0.190741 -0.104775 16.271367 -74.009490 -0.000000 0.160398 0.424575 -0.344620
5.155000 107.315744 1108.903483 -0.000000 0.347124 0.183324 -0.104601 7.865929 -66.270928 -0.000000 0.168459 0.432232 -0.344606
5.160000 134.803851 1121.483000 -0.000000 0.339701 0.176576 -0.104535 0.041700 -54.546539 -0.000000 0.176937 0.439343 -0.344616
5.165000 161.089472 1124.688950 -0.000000 0.332043 0.170362 -0.104542 -6.553750 -38.411318 -0.000000 0.185450 0.445832 -0.344229
5.170000 187.367297 1116.325000 -0.000000 0.324234 0.164595 -0.104453 -11.441611 -17.789758 -0.000000 0.194447 0.451970 -0.344180
5.175000 211.621009 1094.840548 -0.000000 0.316231 0.159422 -0.104294 -14.133735 6.872856 -0.000000 0.203785 0.457222 -0.344150
5.180000 234.681405 1058.568356 -0.000000 0.308143 0.154881 -0.104075 -14.339475 34.594121 -0.000000 0.213969 0.461819 -0.344978
5.185000 250.922690 1007.832651 -0.000000 0.299992 0.150795 -0.103829 -12.205606 63.810834 -0.000000 0.223433 0.465961 -0.344905
5.190000 261.387082 942.466159 -0.000000 0.291939 0.147242 -0.103557 -8.129631 92.747217 -0.000000 0.233033 0.469456 -0.345208
5.195000 264.865735 863.885361 -0.000000 0.283887 0.144299 -0.103321 -2.902523 119.644604 -0.000000 0.242438 0.472735 -0.345454
5.200000 261.220267 774.560686 -0.000000 0.275936 0.141883 -0.103011 2.576390 143.227660 -0.000000 0.251846 0.475669 -0.345713
5.205000 250.521078 678.343180 -0.000000 0.268116 0.140317 -0.102528 7.442698 162.951773 -0.000000 0.261207 0.478299 -0.345912
5.210000 234.304012 579.833219 -0.000000 0.260117 0.139383 -0.102220 11.234415 178.949245 -0.000000 0.270408 0.480131 -0.346151
5.215000 215.705267 483.574662 -0.000000 0.251094 0.139161 -0.102987 14.174302 191.772721 -0.000000 0.279508 0.481350 -0.346473
5.220000 194.732274 395.140942 -0.000000 0.242285 0.139859 -0.102987 15.296062 202.328287 -0.000000 0.288096 0.481990 -0.346846
5.225000 175.862401 316.692928 -0.000000 0.232875 0.141484 -0.103135 15.334233 211.582743 -0.000000 0.296625 0.482098 -0.347202
5.230000 160.847150 249.263100 -0.000000 0.222997 0.143793 -0.103255 14.313004 220.721482 -0.000000 0.304923 0.481467 -0.347484
5.235000 150.747184 191.762337 -0.000000 0.212872 0.147130 -0.103451 12.497496 231.012869 -0.000000 0.312955 0.480110 -0.347809
5.240000 145.287394 141.905165 -0.000000 0.202831 0.151252 -0.103613 10.049753 243.644330 -0.000000 0.320522 0.477872 -0.348144
5.245000 143.339597 96.862014 -0.000000 0.193089 0.156104 -0.103658 7.257486 259.487608 -0.000000 0.327650 0.474970 -0.348874
5.250000 143.046277 54.305709 -0.000000 0.183704 0.161351 -0.103700 3.970464 278.991619 -0.000000 0.334092 0.471545 -0.349140
5.255000 142.503106 12.528382 -0.000000 0.174692 0.167291 -0.103767 0.341472 302.140052 -0.000000 0.340070 0.467416 -0.349344
5.260000 139.815845 -28.798196 -0.000000 0.166020 0.173706 -0.104183 -3.964320 328.489685 -0.000000 0.345664 0.462583 -0.349576
5.265000 133.636849 -68.728096 -0.000000 0.158069 0.180464 -0.104287 -9.454674 357.214220 -0.000000 0.351121 0.456888 -0.349954
5.270000 123.368996 -105.477162 -0.000000 0.150846 0.187984 -0.104312 -16.223038 387.239605 -0.000000 0.356497 0.450473 -0.350978
5.275000 109.576184 -136.563297 -0.000000 0.144053 0.195520 -0.104596 -25.081896 417.362465 -0.000000 0.361527 0.443520 -0.351407
5.280000 93.661070 -159.944822 -0.000000 0.137772 0.203222 -0.104597 -36.410362 446.456367 -0.000000 0.366419 0.436391 -0.350833
5.285000 77.396827 -174.465306 -0.000000 0.132454 0.211138 -0.105091 -50.092169 473.740128 -0.000000 0.371090 0.428260 -0.350645
5.290000 62.396301 -180.098747 -0.000000 0.127367 0.219313 -0.105238 -65.113779 499.068600 -0.000000 0.375505 0.419120 -0.350894
5.295000 50.569211 -177.667245 -0.000000 0.122785 0.227791 -0.105312 -81.652732 522.683285 -0.000000 0.379591 0.409459 -0.351081
5.300000 43.050127 -168.923970 -0.000000 0.118685 0.236794 -0.105369 -99.058014 545.149367 -0.000000 0.383439 0.399826 -0.350747
5.305000 39.993509 -156.013185 -0.000000 0.114955 0.246169 -0.105401 -115.680925 567.201953 -0.000000 0.386806 0.389683 -0.350590
5.310000 41.124815 -140.934816 -0.000000 0.111972 0.255764 -0.105310 -130.610774 589.371097 -0.000000 0.389709 0.378960 -0.350645
5.315000 45.785268 -125.315200 -0.000000 0.109489 0.265602 -0.105290 -143.770740 611.938760 -0.000000 0.392121 0.368356 -0.350422
5.320000 52.824546 -110.358630 -0.000000 0.107574 0.275535 -0.105298 -154.696867 635.219120 -0.000000 0.394062 0.357803 -0.350211
5.325000 60.895062 -96.897286 -0.000000 0.106412 0.285514 -0.105265 -162.455534 659.574652 -0.000000 0.395512 0.346953 -0.350051
5.330000 68.855965 -85.416710 -0.000000 0.105858 0.295615 -0.105293 -166.969550 685.080389 -0.000000 0.396542 0.336031 -0.350045
5.335000 75.818597 -76.105179 -0.000000 0.105943 0.305638 -0.105342 -169.235679 711.522826 -0.000000 0.397185 0.325219 -0.349801
5.340000 80.945577 -69.124820 -0.000000 0.106743 0.315586 -0.105467 -169.064269 739.050531 -0.000000 0.397163 0.314275 -0.348980
5.345000 83.727971 -64.456896 -0.000000 0.108345 0.325581 -0.105573 -166.795649 767.791269 -0.000000 0.396706 0.303352 -0.348615
5.350000 83.931367 -61.900948 -0.000000 0.110457 0.335510 -0.105677 -163.085213 797.861560 -0.000000 0.395674 0.292479 -0.348365
5.355000 81.480354 -61.195026 -0.000000 0.113137 0.345492 -0.105735 -157.700376 829.536746 -0.000000 0.394158 0.281640 -0.348094
5.360000 76.527376 -61.939340 -0.000000 0.116560 0.355442 -0.105808 -150.503383 862.940298 -0.000000 0.392024 0.270857 -0.347912
5.365000 69.414316 -63.652001 -0.000000 0.120655 0.365342 -0.105887 -141.699945 897.922442 -0.000000 0.389359 0.260372 -0.347651
5.370000 60.523770 -65.906706 -0.000000 0.125216 0.375046 -0.106083 -131.032235 934.200403 -0.000000 0.386113 0.250124 -0.347373
5.375000 50.186039 -68.347194 -0.000000 0.130447 0.384484 -0.106270 -117.352344 971.466832 -0.000000 0.382204 0.240007 -0.347184
5.380000 38.834455 -70.527917 -0.000000 0.136245 0.393763 -0.106479 -100.928802 1009.117092 -0.000000 0.377818 0.230269 -0.346943
5.385000 26.849774 -72.056269 -0.000000 0.142524 0.402813 -0.106641 -81.184789 1046.536099 -0.000000 0.372846 0.220785 -0.346726
5.390000 14.632815 -72.509443 -0.000000 0.149371 0.411633 -0.106788 -57.828364 1082.904024 -0.000000 0.367376 0.211556 -0.346565
5.395000 2.647307 -71.422357 -0.000000 0.156550 0.420192 -0.107085 -31.457304 1117.207100 -0.000000 0.361271 0.202742 -0.346558
5.400000 -8.590759 -68.327981 -0.000000 0.164201 0.428366 -0.107395 -3.449168 1148.369638 -0.000000 0.354934 0.194478 -0.346606
5.405000 -18.740697 -62.766882 -0.000000 0.172239 0.436208 -0.107780 27.538793 1175.237544 -0.000000 0.348102 0.186459 -0.346637
5.410000 -27.323510 -54.350031 -0.000000 0.180628 0.443434 -0.108157 59.873818 1196.457778 -0.000000 0.340832 0.178993 -0.346625
5.415000 -34.030768 -42.761296 -0.000000 0.189304 0.450245 -0.108558 93.705810 1210.619311 -0.000000 0.333276 0.171817 -0.346691
5.420000 -38.542672 -27.889706 -0.000000 0.197973 0.456606 -0.109254 126.765788 1216.650585 -0.000000 0.325434 0.165258 -0.346735
5.425000 -40.747336 -9.707557 -0.000000 0.207346 0.462369 -0.109643 160.888729 1213.380416 -0.000000 0.317352 0.159093 -0.346767
5.430000 -40.498864 11.536291 -0.000000 0.218031 0.467433 -0.108928 196.554662 1199.838345 -0.000000 0.309116 0.153744 -0.346831
5.435000 -38.022658 34.905124 -0.000000 0.226842 0.471791 -0.109954 222.155930 1177.483823 -0.000000 0.300733 0.148865 -0.347036
5.440000 -33.545921 59.851565 -0.000000 0.236728 0.475395 -0.110152 246.903026 1144.690076 -0.000000 0.292262 0.144831 -0.347166
5.445000 -27.547775 85.064561 -0.000000 0.246920 0.478512 -0.109654 267.978419 1101.945646 -0.000000 0.283651 0.141173 -0.347264
5.450000 -21.132683 108.994651 -0.000000 0.256420 0.480976 -0.110176 280.894751 1050.744018 -0.000000 0.275026 0.137997 -0.347358
5.455000 -14.856160 130.437873 -0.000000 0.266250 0.483012 -0.110066 290.012055 990.781424 -0.000000 0.265910 0.135475 -0.346292
5.460000 -9.972445 148.552908 -0.000000 0.276137 0.484552 -0.110081 291.746700 924.275967 -0.000000 0.257150 0.133551 -0.346192
5.465000 -6.917322 163.257595 -0.000000 0.285972 0.485285 -0.110040 287.376355 852.644809 -0.000000 0.248339 0.132096 -0.346125
